<?xml version="1.0" encoding="UTF-8" standalone="no"?>
<svg
   width="500"
   height="500"
   viewBox="0 0 144 144"
   version="1.1"
   id="svg3"
   sodipodi:docname="oblidog-icon_bak.svg"
   inkscape:version="1.4.4 (dcaf3e7, 2026-05-05)"
   xmlns:inkscape="http://www.inkscape.org/namespaces/inkscape"
   xmlns:sodipodi="http://sodipodi.sourceforge.net/DTD/sodipodi-0.dtd"
   xmlns="http://www.w3.org/2000/svg"
   xmlns:svg="http://www.w3.org/2000/svg"
   xmlns:rdf="http://www.w3.org/1999/02/22-rdf-syntax-ns#"
   xmlns:cc="http://creativecommons.org/ns#"
   xmlns:dc="http://purl.org/dc/elements/1.1/">
  <defs
     id="defs3" />
  <sodipodi:namedview
     id="namedview3"
     pagecolor="#ffffff"
     bordercolor="#000000"
     borderopacity="0.25"
     inkscape:showpageshadow="2"
     inkscape:pageopacity="0.0"
     inkscape:pagecheckerboard="0"
     inkscape:deskcolor="#d1d1d1"
     inkscape:zoom="2.386"
     inkscape:cx="250"
     inkscape:cy="250"
     inkscape:window-width="2400"
     inkscape:window-height="1411"
     inkscape:window-x="2391"
     inkscape:window-y="-9"
     inkscape:window-maximized="1"
     inkscape:current-layer="svg3" />
  <title
     id="title1">Oblidog icon</title>
  <path
     fill="#009688"
     d="M72 3 L137 27 V67 C137 103 112 128 72 141 C32 128 7 103 7 67 V27 Z"
     id="path1" />
  <g
     id="g4"
     transform="matrix(1.1658652,0,0,1.1658652,-12.288807,-22.239091)">
    <path
       fill="#ffffff"
       d="M 40,103 33,94 45,72 57,49 67,27 l 5,31 16,5 q 8,2 10,10 l 23,7 q -3,16 -15,21 -5,2 -15,2 -10,1 -14,9 -3,7 -2,17 l -9,3 Q 54,124 40,103 Z"
       id="path2" />
    <g
       id="g3">
      <path
         fill="#009688"
         d="m 78,72 q 8,0 14,4 -5,6 -10,6 -3,-4 -4,-10 z"
         id="path3" />
    </g>
  </g>
  <metadata
     id="metadata4">
    <rdf:RDF>
      <cc:Work
         rdf:about="">
        <dc:title>Oblidog icon</dc:title>
      </cc:Work>
    </rdf:RDF>
  </metadata>
</svg>
